<svg width="50" height="50" viewBox="20 10 50 50" fill="none" xmlns="http://www.w3.org/2000/svg">
<g filter="url(#filter0_d)">
<rect x="20" y="10" width="50" height="50" rx="15" fill="#EDE7F2"/>
</g>
<path fill-rule="evenodd" clip-rule="evenodd" d="M45.3809 23.5781C45.5672 23.4109 45.8136 23.3232 46.0659 23.3345C51.3985 23.4941 55.8552 27.3653 56.6629 32.5392C56.668 32.5701 56.668 32.6016 56.6629 32.6325C56.6803 32.8773 56.5976 33.1188 56.433 33.3037C56.2684 33.4885 56.0356 33.6013 55.786 33.6173L46.8266 34.2081C46.5303 34.2344 46.2364 34.1369 46.0172 33.9396C45.798 33.7423 45.6737 33.4634 45.675 33.1715L45.0727 24.371V24.2259C45.0837 23.9784 45.1946 23.7453 45.3809 23.5781ZM44.7663 36.5093L52.5318 36.0118L52.5846 36.0325C52.9181 36.0379 53.2357 36.1732 53.4675 36.4084C53.6994 36.6436 53.8264 36.9596 53.8208 37.2867C53.5148 41.7459 50.2456 45.4716 45.7966 46.4314C41.3476 47.3913 36.7869 45.3548 34.6025 41.433C33.9601 40.3035 33.5542 39.0595 33.4086 37.7739C33.3521 37.393 33.3273 37.0082 33.3346 36.6233C33.3493 31.8817 36.7252 27.7891 41.4488 26.7863C42.0206 26.6792 42.5939 26.9647 42.8434 27.4808C42.9055 27.5744 42.9552 27.6754 42.9913 27.7814C43.0799 29.1483 43.1717 30.5022 43.2632 31.8505C43.3354 32.9151 43.4074 33.9763 43.4773 35.0374C43.4737 35.2874 43.513 35.5362 43.5935 35.7733C43.7831 36.24 44.255 36.5361 44.7663 36.5093Z" fill="#75578E"/>
<defs>
<filter id="filter0_d" x="0" y="0" width="90" height="90" filterUnits="userSpaceOnUse" color-interpolation-filters="sRGB">
<feFlood flood-opacity="0" result="BackgroundImageFix"/>
<feColorMatrix in="SourceAlpha" type="matrix" values="0 0 0 0 0 0 0 0 0 0 0 0 0 0 0 0 0 0 127 0" result="hardAlpha"/>
<feOffset dy="10"/>
<feGaussianBlur stdDeviation="10"/>
<feColorMatrix type="matrix" values="0 0 0 0 0.0235294 0 0 0 0 0.301961 0 0 0 0 0.227451 0 0 0 0.03 0"/>
<feBlend mode="normal" in2="BackgroundImageFix" result="effect1_dropShadow"/>
<feBlend mode="normal" in="SourceGraphic" in2="effect1_dropShadow" result="shape"/>
</filter>
</defs>
</svg>
