<svg width="50" height="50" viewBox="20 10 50 50" fill="none" xmlns="http://www.w3.org/2000/svg">
<g filter="url(#filter0_d)">
<rect x="19.9998" y="10" width="50" height="50" rx="15" fill="#DAE6FF"/>
</g>
<path fill-rule="evenodd" clip-rule="evenodd" d="M34.9998 33.6699C34.9998 28.8817 38.8401 25 43.5774 25C45.8523 25 48.0341 25.9134 49.6427 27.5394C51.2513 29.1653 52.155 31.3705 52.155 33.6699C52.155 38.4582 48.3147 42.3399 43.5774 42.3399C38.8401 42.3399 34.9998 38.4582 34.9998 33.6699ZM52.0131 40.6543L54.5678 42.7164H54.6121C55.129 43.2388 55.129 44.0858 54.6121 44.6082C54.0953 45.1306 53.2573 45.1306 52.7405 44.6082L50.6205 42.1784C50.4201 41.9766 50.3074 41.7023 50.3074 41.4164C50.3074 41.1304 50.4201 40.8561 50.6205 40.6543C51.007 40.2704 51.6266 40.2704 52.0131 40.6543Z" fill="#6E9CFD"/>
<defs>
<filter id="filter0_d" x="-0.000244141" y="0" width="90" height="90" filterUnits="userSpaceOnUse" color-interpolation-filters="sRGB">
<feFlood flood-opacity="0" result="BackgroundImageFix"/>
<feColorMatrix in="SourceAlpha" type="matrix" values="0 0 0 0 0 0 0 0 0 0 0 0 0 0 0 0 0 0 127 0" result="hardAlpha"/>
<feOffset dy="10"/>
<feGaussianBlur stdDeviation="10"/>
<feColorMatrix type="matrix" values="0 0 0 0 0.770833 0 0 0 0 0.619075 0 0 0 0 0.56849 0 0 0 0.1 0"/>
<feBlend mode="normal" in2="BackgroundImageFix" result="effect1_dropShadow"/>
<feBlend mode="normal" in="SourceGraphic" in2="effect1_dropShadow" result="shape"/>
</filter>
</defs>
</svg>
