<svg width="50" height="50" viewBox="20 10 50 50" fill="none" xmlns="http://www.w3.org/2000/svg">
<g filter="url(#filter0_d)">
<rect x="20" y="10" width="50" height="50" rx="15" fill="#CEEDFF"/>
</g>
<path fill-rule="evenodd" clip-rule="evenodd" d="M40.81 25H49.191C52.28 25 54 26.78 54 29.83V40.16C54 43.26 52.28 45 49.191 45H40.81C37.77 45 36 43.26 36 40.16V29.83C36 26.78 37.77 25 40.81 25ZM41.0799 29.6601V29.6501H44.0689C44.4999 29.6501 44.8499 30.0001 44.8499 30.4291C44.8499 30.8701 44.4999 31.2201 44.0689 31.2201H41.0799C40.6489 31.2201 40.2999 30.8701 40.2999 30.4401C40.2999 30.0101 40.6489 29.6601 41.0799 29.6601ZM41.0799 35.7401H48.9199C49.3499 35.7401 49.6999 35.3901 49.6999 34.9601C49.6999 34.5301 49.3499 34.1791 48.9199 34.1791H41.0799C40.6489 34.1791 40.2999 34.5301 40.2999 34.9601C40.2999 35.3901 40.6489 35.7401 41.0799 35.7401ZM41.08 40.31H48.92C49.319 40.27 49.62 39.929 49.62 39.53C49.62 39.12 49.319 38.78 48.92 38.74H41.08C40.78 38.71 40.49 38.85 40.33 39.11C40.17 39.36 40.17 39.69 40.33 39.95C40.49 40.2 40.78 40.35 41.08 40.31Z" fill="#4DBCFE"/>
<defs>
<filter id="filter0_d" x="0" y="0" width="90" height="90" filterUnits="userSpaceOnUse" color-interpolation-filters="sRGB">
<feFlood flood-opacity="0" result="BackgroundImageFix"/>
<feColorMatrix in="SourceAlpha" type="matrix" values="0 0 0 0 0 0 0 0 0 0 0 0 0 0 0 0 0 0 127 0" result="hardAlpha"/>
<feOffset dy="10"/>
<feGaussianBlur stdDeviation="10"/>
<feColorMatrix type="matrix" values="0 0 0 0 0.770833 0 0 0 0 0.619075 0 0 0 0 0.56849 0 0 0 0.1 0"/>
<feBlend mode="normal" in2="BackgroundImageFix" result="effect1_dropShadow"/>
<feBlend mode="normal" in="SourceGraphic" in2="effect1_dropShadow" result="shape"/>
</filter>
</defs>
</svg>
